<svg xmlns="http://www.w3.org/2000/svg" fill="none" viewBox="0 0 48 48" height="48" width="48">
<circle cx="24" cy="24" r="24" fill="white"/>
<path fill="#F04C4C" d="M12.3172 42.6126C11.9354 42.6126 11.6257 42.3154 11.6257 41.9484V19.9715C11.6257 19.6045 11.3165 19.3072 10.9347 19.3072H5.29843C4.91665 19.3072 4.60693 19.0099 4.60693 18.643V14.1876C4.60693 13.8206 4.91665 13.5233 5.29843 13.5233H10.9347C11.3165 13.5233 11.6257 13.2261 11.6257 12.8591V5.57621H0.798828C0.35776 5.57621 0 5.91979 0 6.3438V42.2624C0 42.578 0.200857 42.861 0.505975 42.9766L13.6491 47.946C14.1729 48.144 14.7402 47.7729 14.7402 47.2319V42.6131L12.3172 42.6126Z" transform="translate(8,0)"/>
<path fill="#303436" d="M28.9837 5.02343L15.8406 0.0539914C15.3167 -0.144012 14.7494 0.227054 14.7494 0.768129V5.46271H16.9538C17.3355 5.46271 17.6453 5.75997 17.6453 6.12696V12.8591C17.6453 13.2261 17.9545 13.5233 18.3362 13.5233H24.1918C24.5735 13.5233 24.8833 13.8206 24.8833 14.1876V18.6429C24.8833 19.0099 24.5735 19.3072 24.1918 19.3072H18.3362C17.9545 19.3072 17.6453 19.6045 17.6453 19.9715V42.4233H28.6914C29.1324 42.4233 29.4902 42.0797 29.4902 41.6557V5.73757C29.4902 5.42198 29.2888 5.13898 28.9837 5.02343Z" transform="translate(8,0)"/>
</svg>
